<svg width="76" height="59" viewBox="0 0 76 59" fill="none" xmlns="http://www.w3.org/2000/svg">
<path d="M67.0707 54.876C67.0707 55.549 66.5244 56.0956 65.8511 56.0956H3.65852C2.98525 56.0956 2.43893 55.5493 2.43893 54.876V19.5117H67.0707V35.3646H69.5096V10.9753C69.5096 8.95834 67.8683 7.31678 65.8511 7.31678H60.9732V3.65852C60.9732 1.64156 59.3319 0 57.3147 0C55.2977 0 53.6562 1.6413 53.6562 3.65852V7.31704H15.8532V3.65852C15.8532 1.64156 14.2119 0 12.1946 0C10.1774 0 8.53612 1.6413 8.53612 3.65852V7.31704H3.65826C1.6413 7.31704 0 8.95834 0 10.9753V54.876C0 56.893 1.6413 58.5345 3.65852 58.5345H65.8513C67.8683 58.5345 69.5099 56.8932 69.5099 54.876V52.4371H67.0709V54.876H67.0707ZM56.0954 3.65852C56.0954 2.98655 56.6417 2.43893 57.315 2.43893C57.9882 2.43893 58.5343 2.98655 58.5343 3.65852V8.53638C58.5343 9.20835 57.988 9.75597 57.3147 9.75597C56.6414 9.75597 56.0951 9.20835 56.0951 8.53638V3.65852H56.0954ZM10.9753 3.65852C10.9753 2.98655 11.5216 2.43893 12.1949 2.43893C12.8682 2.43893 13.4145 2.98655 13.4145 3.65852V8.53638C13.4145 9.20835 12.8682 9.75597 12.1949 9.75597C11.5216 9.75597 10.9753 9.20835 10.9753 8.53638V3.65852ZM3.65852 9.75597H8.76089C9.26585 11.1717 10.6072 12.1949 12.1949 12.1949C13.7826 12.1949 15.124 11.1717 15.6289 9.75597H53.8822C54.3872 11.1717 55.7285 12.1949 57.3163 12.1949C58.904 12.1949 60.2453 11.1717 60.7503 9.75597H65.8513C66.5244 9.75597 67.0709 10.3036 67.0709 10.9756V17.0733H2.43893V10.9753C2.43893 10.3033 2.98525 9.75597 3.65852 9.75597Z" fill="#222222"/>
<path d="M65.2416 53.6568C59.5261 53.6568 54.8761 49.0071 54.8761 43.2913C54.8761 37.5755 59.5258 32.9258 65.2416 32.9258C70.9574 32.9258 75.6071 37.5755 75.6071 43.2913C75.6071 49.0071 70.9572 53.6568 65.2416 53.6568Z" fill="#FFD900"/>
<path d="M60.4307 42.8864L59.0771 44.9156L63.6563 47.968L75.3314 33.6976L73.4437 32.1538L63.1685 44.7119L60.4307 42.8864Z" fill="#222222"/>
<path d="M14.6336 23.1699H6.09747V30.4867H14.6336V23.1699ZM12.1947 28.0478H8.5364V25.6089H12.1949L12.1947 28.0478Z" fill="#222222"/>
<path d="M26.8282 23.1699H18.2921V30.4867H26.8285V23.1699H26.8282ZM24.3893 28.0478H20.731V25.6089H24.3893V28.0478Z" fill="#222222"/>
<path d="M39.0228 23.1699H30.4865V30.4867H39.0228V23.1699ZM36.5839 28.0478H32.9254V25.6089H36.5839V28.0478Z" fill="#222222"/>
<path d="M51.2175 23.1699H42.6811V30.4867H51.2175V23.1699ZM48.7785 28.0478H45.12V25.6089H48.7785V28.0478Z" fill="#222222"/>
<path d="M63.4121 23.1699H54.8757V30.4867H63.4121V23.1699ZM60.9732 28.0478H57.3147V25.6089H60.9732V28.0478Z" fill="#222222"/>
<path d="M14.6336 34.1455H6.09747V41.4623H14.6336V34.1455ZM12.1947 39.0234H8.5364V36.5844H12.1949L12.1947 39.0234Z" fill="#222222"/>
<path d="M26.8282 34.1455H18.2921V41.4623H26.8285V34.1455H26.8282ZM24.3893 39.0234H20.731V36.5844H24.3893V39.0234Z" fill="#222222"/>
<path d="M39.0228 34.1455H30.4865V41.4623H39.0228V34.1455ZM36.5839 39.0234H32.9254V36.5844H36.5839V39.0234Z" fill="#222222"/>
<path d="M51.2175 34.1455H42.6811V41.4623H51.2175V34.1455ZM48.7785 39.0234H45.12V36.5844H48.7785V39.0234Z" fill="#222222"/>
<path d="M6.09747 52.4374H14.6336V45.1206H6.09747V52.4374ZM8.5364 47.5595H12.1949V49.9985H8.5364V47.5595Z" fill="#222222"/>
<path d="M18.2921 52.4374H26.8285V45.1206H18.2921V52.4374ZM20.731 47.5595H24.3893V49.9985H20.731V47.5595Z" fill="#222222"/>
<path d="M30.4867 52.4374H39.0228V45.1206H30.4865V52.4374H30.4867ZM32.9256 47.5595H36.5842V49.9985H32.9256V47.5595Z" fill="#222222"/>
<path d="M42.6815 52.4374H51.2178V45.1206H42.6815V52.4374ZM45.1204 47.5595H48.7786V49.9985H45.1201V47.5595H45.1204Z" fill="#222222"/>
</svg>
