<svg width="96" height="33" viewBox="0 0 96 33" fill="none" xmlns="http://www.w3.org/2000/svg">
<path d="M12.8613 30.0186H11.8654V32.2242H10.8848V26.9905H11.8654V29.1812H12.8919L14.4317 26.9905H15.4889L13.658 29.5251L15.5579 32.2242H14.4317L12.8613 30.0186Z" fill="#333333"/>
<path d="M20.5397 32.2989C19.9932 32.2989 19.5003 32.1843 19.0611 31.955C18.6219 31.7208 18.2772 31.3993 18.0269 30.9905C17.7767 30.5768 17.6515 30.1158 17.6515 29.6074C17.6515 29.0989 17.7767 28.6404 18.0269 28.2317C18.2772 27.818 18.6219 27.4965 19.0611 27.2672C19.5003 27.0329 19.9932 26.9158 20.5397 26.9158C21.0861 26.9158 21.579 27.0329 22.0182 27.2672C22.4574 27.4965 22.8022 27.8155 23.0524 28.2242C23.3027 28.6329 23.4278 29.094 23.4278 29.6074C23.4278 30.1208 23.3027 30.5818 23.0524 30.9905C22.8022 31.3993 22.4574 31.7208 22.0182 31.955C21.579 32.1843 21.0861 32.2989 20.5397 32.2989ZM20.5397 31.4466C20.8972 31.4466 21.2189 31.3694 21.5049 31.2148C21.7909 31.0553 22.0157 30.836 22.1791 30.5569C22.3425 30.2728 22.4242 29.9563 22.4242 29.6074C22.4242 29.2585 22.3425 28.9444 22.1791 28.6653C22.0157 28.3812 21.7909 28.1619 21.5049 28.0074C21.2189 27.8479 20.8972 27.7681 20.5397 27.7681C20.1822 27.7681 19.8604 27.8479 19.5744 28.0074C19.2884 28.1619 19.0637 28.3812 18.9002 28.6653C18.7368 28.9444 18.6551 29.2585 18.6551 29.6074C18.6551 29.9563 18.7368 30.2728 18.9002 30.5569C19.0637 30.836 19.2884 31.0553 19.5744 31.2148C19.8604 31.3694 20.1822 31.4466 20.5397 31.4466Z" fill="#333333"/>
<path d="M31.1326 26.9905V32.2242H30.1366V29.9812H27.3634V32.2242H26.3675V26.9905H27.3634V29.1513H30.1366V26.9905H31.1326Z" fill="#333333"/>
<path d="M36.9422 32.2989C36.4009 32.2989 35.9106 32.1843 35.4714 31.955C35.0372 31.7208 34.6951 31.3993 34.4448 30.9905C34.1997 30.5818 34.0771 30.1208 34.0771 29.6074C34.0771 29.094 34.2022 28.6329 34.4525 28.2242C34.7027 27.8155 35.0449 27.4965 35.479 27.2672C35.9182 27.0329 36.4085 26.9158 36.9499 26.9158C37.3891 26.9158 37.7901 26.9905 38.1527 27.1401C38.5153 27.2896 38.8217 27.5064 39.072 27.7905L38.4285 28.3812C38.0403 27.9725 37.5628 27.7681 36.9959 27.7681C36.6282 27.7681 36.2987 27.8479 36.0076 28.0074C35.7165 28.1619 35.4892 28.3787 35.3258 28.6578C35.1624 28.937 35.0807 29.2535 35.0807 29.6074C35.0807 29.9613 35.1624 30.2778 35.3258 30.5569C35.4892 30.836 35.7165 31.0553 36.0076 31.2148C36.2987 31.3694 36.6282 31.4466 36.9959 31.4466C37.5628 31.4466 38.0403 31.2398 38.4285 30.8261L39.072 31.4242C38.8217 31.7083 38.5127 31.9251 38.145 32.0747C37.7824 32.2242 37.3815 32.2989 36.9422 32.2989Z" fill="#333333"/>
<path d="M45.6671 27.813H43.8898V32.2242H42.9016V27.813H41.1319V26.9905H45.6671V27.813Z" fill="#333333"/>
<path d="M50.571 26.9905C51.0358 26.9905 51.4392 27.0653 51.7814 27.2148C52.1287 27.3644 52.3943 27.5787 52.5781 27.8578C52.762 28.137 52.8539 28.4684 52.8539 28.8522C52.8539 29.231 52.762 29.5625 52.5781 29.8466C52.3943 30.1257 52.1287 30.3401 51.7814 30.4896C51.4392 30.6391 51.0358 30.7139 50.571 30.7139H49.3606V32.2242H48.3647V26.9905H50.571ZM50.525 29.8915C50.9591 29.8915 51.2886 29.8018 51.5133 29.6223C51.738 29.4429 51.8504 29.1862 51.8504 28.8522C51.8504 28.5183 51.738 28.2616 51.5133 28.0821C51.2886 27.9027 50.9591 27.813 50.525 27.813H49.3606V29.8915H50.525Z" fill="#333333"/>
<path d="M58.92 31.013H56.2387L55.7101 32.2242H54.6836L57.0967 26.9905H58.0773L60.4982 32.2242H59.4563L58.92 31.013ZM58.5906 30.2504L57.5794 27.9625L56.5758 30.2504H58.5906Z" fill="#333333"/>
<path d="M65.1356 30.0186H64.1397V32.2242H63.1591V26.9905H64.1397V29.1812H65.1663L66.7061 26.9905H67.7633L65.9324 29.5251L67.8322 32.2242H66.7061L65.1356 30.0186Z" fill="#333333"/>
<path d="M77.2417 26.9905V32.2242H70.3545V26.9905H71.3351V31.4018H73.3116V26.9905H74.2922V31.4018H76.2611V26.9905H77.2417Z" fill="#333333"/>
<path d="M85.3521 26.9905V32.2242H84.3561V29.9812H81.5829V32.2242H80.587V26.9905H81.5829V29.1513H84.3561V26.9905H85.3521Z" fill="#333333"/>
<rect width="96" height="23.3271" rx="8" fill="#FFD900"/>
<path d="M18.6168 16.5982L18.5917 12.5914L16.6825 15.8069H15.3762L13.4669 12.7295V16.5982H10.7664V7.80571H13.2031L16.067 12.4909L18.8555 7.80571H21.2923L21.3174 16.5982H18.6168Z" fill="#333333"/>
<path d="M30.1965 15.0658H26.8553L26.2649 16.5982H23.2504L27.094 7.80571H30.008L33.8516 16.5982H30.7868L30.1965 15.0658ZM29.38 12.9305L28.5259 10.7198L27.6718 12.9305H29.38Z" fill="#333333"/>
<path d="M40.0924 16.7992C39.1629 16.7992 38.3255 16.6066 37.5802 16.2214C36.8349 15.8278 36.2488 15.2835 35.8217 14.5885C35.403 13.8851 35.1937 13.0896 35.1937 12.202C35.1937 11.3143 35.403 10.523 35.8217 9.82799C36.2488 9.12459 36.8349 8.58029 37.5802 8.19509C38.3255 7.80152 39.1629 7.60474 40.0924 7.60474C40.9465 7.60474 41.7085 7.75547 42.3784 8.05692C43.0483 8.35838 43.601 8.79382 44.0364 9.36324L42.1649 11.0338C41.6206 10.3472 40.98 10.0038 40.2431 10.0038C39.6234 10.0038 39.1252 10.2048 38.7484 10.6068C38.3715 11.0003 38.1831 11.5321 38.1831 12.202C38.1831 12.8719 38.3715 13.4078 38.7484 13.8097C39.1252 14.2033 39.6234 14.4001 40.2431 14.4001C40.98 14.4001 41.6206 14.0568 42.1649 13.3701L44.0364 15.0407C43.601 15.6101 43.0483 16.0456 42.3784 16.347C41.7085 16.6485 40.9465 16.7992 40.0924 16.7992Z" fill="#333333"/>
<path d="M52.2048 12.0764L54.8048 16.5982H51.4637L49.7805 13.4204H48.9515V16.5982H45.9872V7.80571H48.9515V11.0841H49.8559L51.7274 7.80571H54.8174L52.2048 12.0764Z" fill="#333333"/>
<path d="M60.9503 16.7992C60.004 16.7992 59.1541 16.6024 58.4004 16.2088C57.6468 15.8153 57.0564 15.271 56.6294 14.576C56.2023 13.8726 55.9888 13.0812 55.9888 12.202C55.9888 11.3227 56.2023 10.5356 56.6294 9.84055C57.0564 9.13715 57.6468 8.58866 58.4004 8.19509C59.1541 7.80152 60.004 7.60474 60.9503 7.60474C61.8965 7.60474 62.7465 7.80152 63.5001 8.19509C64.2538 8.58866 64.8441 9.13715 65.2712 9.84055C65.6982 10.5356 65.9118 11.3227 65.9118 12.202C65.9118 13.0812 65.6982 13.8726 65.2712 14.576C64.8441 15.271 64.2538 15.8153 63.5001 16.2088C62.7465 16.6024 61.8965 16.7992 60.9503 16.7992ZM60.9503 14.4001C61.3187 14.4001 61.6495 14.3122 61.9426 14.1363C62.244 13.9521 62.4827 13.6967 62.6585 13.3701C62.8344 13.0352 62.9223 12.6458 62.9223 12.202C62.9223 11.7582 62.8344 11.373 62.6585 11.0464C62.4827 10.7114 62.244 10.456 61.9426 10.2802C61.6495 10.096 61.3187 10.0038 60.9503 10.0038C60.5818 10.0038 60.2469 10.096 59.9454 10.2802C59.6523 10.456 59.4179 10.7114 59.242 11.0464C59.0662 11.373 58.9782 11.7582 58.9782 12.202C58.9782 12.6458 59.0662 13.0352 59.242 13.3701C59.4179 13.6967 59.6523 13.9521 59.9454 14.1363C60.2469 14.3122 60.5818 14.4001 60.9503 14.4001Z" fill="#333333"/>
<path d="M75.4727 10.1043H72.8977V16.5982H69.9836V10.1043H67.4087V7.80571H75.4727V10.1043Z" fill="#333333"/>
<path d="M85.1896 10.1043H82.6146V16.5982H79.7005V10.1043H77.1256V7.80571H85.1896V10.1043Z" fill="#333333"/>
</svg>
