<svg width="76" height="76" viewBox="0 0 76 76" fill="none" xmlns="http://www.w3.org/2000/svg">
<path d="M13.395 4.87109V13.3953H4.87079V21.9195H48.7094V4.87109H13.395Z" fill="#FFD900"/>
<path d="M57.2335 64.541C52.5344 64.541 48.7094 60.716 48.7094 56.0168C48.7094 51.3177 52.5344 47.4927 57.2335 47.4927C61.9326 47.4927 65.7577 51.3177 65.7577 56.0168C65.7577 60.716 61.9326 64.541 57.2335 64.541Z" fill="#FFD900"/>
<path d="M36.532 65.7587H4.87079V43.8394H36.532V65.7587Z" fill="#FFD900"/>
<path d="M74.2822 41.4032C69.583 41.4032 65.758 37.5781 65.758 32.879V31.6612H53.5806V0H12.8909L0 12.8909V70.6289H49.1324C51.3776 72.5661 53.9314 74.1918 56.7539 75.4012L57.2338 75.6069L57.7136 75.4012C68.5187 70.7716 75.4999 60.183 75.4999 48.4284V41.4032H74.2822ZM12.1774 4.15744V12.1774H4.15744L12.1774 4.15744ZM2.43548 14.6129H14.6129V2.43548H51.1451V31.6612H48.7096V32.879C48.7096 37.5781 44.8845 41.4032 40.1854 41.4032H38.9677V48.4284C38.9677 55.9013 41.798 62.895 46.6285 68.1935H2.43548V14.6129ZM73.0644 48.4284C73.0644 59.0336 66.8687 68.6013 57.2338 72.9526C47.5989 68.6025 41.4032 59.0336 41.4032 48.4284V43.7715C46.4751 43.209 50.5142 39.1698 51.0767 34.0979H63.3897C63.9522 39.1698 67.9913 43.209 73.0632 43.7715V48.4284H73.0644Z" fill="#222222"/>
<path d="M56.692 56.6256L54.2565 55.0024L52.9044 57.0288L57.7754 60.2765L65.6592 41.8825L63.4211 40.9229L56.692 56.6256Z" fill="#222222"/>
<path d="M9.74191 24.3542H36.5322V26.7897H9.74191V24.3542Z" fill="#222222"/>
<path d="M4.87079 24.3542H7.30627V26.7897H4.87079V24.3542Z" fill="#222222"/>
<path d="M4.87079 29.2252H36.532V31.6607H4.87079V29.2252Z" fill="#222222"/>
<path d="M4.87079 34.0968H36.532V36.5323H4.87079V34.0968Z" fill="#222222"/>
<path d="M4.87079 38.9679H36.532V41.4034H4.87079V38.9679Z" fill="#222222"/>
</svg>
