<svg width="76" height="64" viewBox="0 0 76 64" fill="none" xmlns="http://www.w3.org/2000/svg">
<path d="M37.4385 52.4942C38.1464 53.2022 39.1256 53.6079 40.1274 53.6079C42.178 53.6079 43.8443 51.9731 43.9163 49.9398C45.9033 49.869 47.5006 48.2717 47.5714 46.2847C49.5583 46.2139 51.1556 44.6166 51.2264 42.6297C53.2598 42.5565 54.8951 40.8908 54.8951 38.8408C54.8951 38.6677 54.8672 38.4969 54.844 38.325L56.5924 36.5766L58.0052 39.4035L66.4058 35.2036L65.3153 33.0239L59.0957 36.1346L51.7089 21.3597L58.1213 18.8451L57.2319 16.5762L49.9706 19.4239L39.1066 16.1645C38.2916 15.9212 37.4533 15.8355 36.6223 15.8659V15.8391H23.4156L17.8557 13.9913L17.0871 16.3037L21.6059 17.8046L15.2292 33.749L11.4867 32.2517L10.5825 34.5141L16.5862 36.9157L18.0936 33.1482L20.2769 35.3327L18.24 37.3702C17.532 38.0781 17.1263 39.0573 17.1263 40.0591C17.1263 42.1091 18.7611 43.776 20.7945 43.848C20.8652 45.835 22.4625 47.4323 24.4495 47.5031C24.5203 49.49 26.1176 51.0873 28.1045 51.1581C28.1777 53.1915 29.8434 54.8262 31.894 54.8262C32.8953 54.8262 33.875 54.4205 34.5824 53.7126L36.6199 51.6757L37.4385 52.4942ZM38.4046 18.5001L49.1675 21.7286L55.443 34.2815L53.6768 36.0465L48.6689 31.0006C49.1163 31.0429 49.5672 31.0684 50.0217 31.0684V28.6317C47.1853 28.6317 44.4707 27.5758 42.3803 25.659L39.5313 23.0492C37.9233 21.5727 35.1957 21.6316 33.652 23.1771L30.4246 26.405C30.1688 26.6585 29.8167 26.8042 29.4573 26.8042C28.7042 26.8042 28.0915 26.1915 28.0915 25.4389C28.0915 25.0731 28.2324 24.731 28.4906 24.4722L33.135 19.8285C34.5009 18.4626 36.5491 17.9432 38.4046 18.5001ZM24.0426 18.2758H31.242L26.7684 22.75C26.0492 23.4674 25.6548 24.4228 25.6548 25.4389C25.6548 27.5353 27.3603 29.2409 29.4573 29.2409C30.4586 29.2409 31.4383 28.8352 32.1457 28.1273L35.3736 24.8988C36.0339 24.2408 37.1969 24.2152 37.8846 24.8452L40.733 27.4562C41.6795 28.3236 42.7313 29.0452 43.8568 29.6103L52.0587 37.8741C52.3133 38.1293 52.4584 38.4809 52.4584 38.8408C52.4584 39.5933 51.8457 40.2061 51.0925 40.2061C50.7332 40.2061 50.3811 40.0615 50.1264 39.8069L39.918 29.5979L38.1952 31.3207L48.4036 41.5291C48.6582 41.7843 48.8034 42.1359 48.8034 42.4958C48.8034 43.2484 48.1906 43.8611 47.4375 43.8611C47.0782 43.8611 46.726 43.7165 46.4714 43.4619L36.263 33.2529L34.5401 34.9757L44.7486 45.1842C45.0032 45.4394 45.1483 45.7909 45.1483 46.1509C45.1483 46.9034 44.5356 47.5161 43.7825 47.5161C43.4231 47.5161 43.071 47.3716 42.8163 47.117L32.6079 36.9079L30.8851 38.6308L41.0935 48.8392C41.3481 49.0944 41.4933 49.446 41.4933 49.8059C41.4933 50.5584 40.8805 51.1712 40.1274 51.1712C39.7681 51.1712 39.4159 51.0266 39.1613 50.772L37.7871 49.3972C37.8115 49.2271 37.8382 49.0563 37.8382 48.882C37.8382 46.8314 36.2029 45.1651 34.1695 45.0931C34.0987 43.1062 32.5014 41.5089 30.5145 41.4381C30.4437 39.4511 28.8464 37.8538 26.8594 37.783C26.7863 35.7497 25.1211 34.1143 23.0705 34.1143C22.8974 34.1143 22.7267 34.1423 22.5554 34.1655L19.077 30.6871L24.0426 18.2758ZM19.563 40.0591C19.563 39.6992 19.7076 39.3476 19.9622 39.0924L22.1044 36.9508C22.359 36.6962 22.7112 36.551 23.0705 36.551C23.8237 36.551 24.4364 37.1643 24.4364 37.9169C24.4364 38.2762 24.2913 38.6284 24.0366 38.883L21.895 41.0252C21.6404 41.2798 21.2882 41.4244 20.9289 41.4244C20.1758 41.4244 19.563 40.8117 19.563 40.0591ZM23.2181 43.7142C23.2181 43.3542 23.3626 43.0027 23.6172 42.7475L25.7595 40.6058C26.0141 40.3512 26.3663 40.2061 26.7256 40.2061C27.4787 40.2061 28.0915 40.8194 28.0915 41.5719C28.0915 41.9313 27.9463 42.2834 27.6917 42.538L25.5501 44.6803C25.2954 44.9349 24.9433 45.0794 24.5839 45.0794C23.8308 45.0794 23.2181 44.4667 23.2181 43.7142ZM26.8731 47.3692C26.8731 47.0093 27.0177 46.6577 27.2723 46.4025L29.4145 44.2609C29.6691 44.0063 30.0213 43.8611 30.3806 43.8611C31.1338 43.8611 31.7465 44.4744 31.7465 45.227C31.7465 45.5863 31.6013 45.9385 31.3467 46.1931L29.2051 48.3353C28.9505 48.5899 28.5983 48.7345 28.239 48.7345C27.4859 48.7345 26.8731 48.1217 26.8731 47.3692ZM35.0018 49.8481L32.8602 51.9904C32.6055 52.245 32.2534 52.3895 31.894 52.3895C31.1409 52.3895 30.5282 51.7768 30.5282 51.0243C30.5282 50.6643 30.6727 50.3128 30.9273 50.0575L33.0696 47.9159C33.3242 47.6613 33.6763 47.5161 34.0357 47.5161C34.7888 47.5161 35.4016 48.1295 35.4016 48.882C35.4016 49.2413 35.2564 49.5935 35.0018 49.8481Z" fill="#222222"/>
<path d="M14.5775 53.2155L16.3003 51.4921L18.0231 53.2155L16.3003 54.9383L14.5775 53.2155Z" fill="#222222"/>
<path d="M19.2254 57.3371L20.58 55.3115L22.6044 56.6649L21.2505 58.6905L19.2254 57.3371Z" fill="#222222"/>
<path d="M24.5881 60.4761L25.5209 58.225L27.772 59.1578L26.8392 61.4089L24.5881 60.4761Z" fill="#222222"/>
<path d="M30.4629 62.5114L30.9388 60.1229L33.3267 60.5988L32.8508 62.9873L30.4629 62.5114Z" fill="#222222"/>
<path d="M53.0703 6.68761L54.4248 4.66199L56.4493 6.01538L55.0947 8.041L53.0703 6.68761Z" fill="#222222"/>
<path d="M47.9014 4.19799L48.8342 1.9469L51.0853 2.8797L50.1525 5.13079L47.9014 4.19799Z" fill="#222222"/>
<path d="M42.3493 2.76261L42.824 0.372314L45.2125 0.847042L44.7378 3.23674L42.3493 2.76261Z" fill="#222222"/>
<path d="M60.9872 3.65552H58.5505V9.74726H52.4588V12.184H60.9872V3.65552Z" fill="#222222"/>
<path d="M17.1262 46.2976H9.8161V53.6077H12.2528V48.7343H17.1262V46.2976Z" fill="#222222"/>
<path d="M37.8386 2.4367H39.0569V0H37.8386C29.8206 0 22.1702 3.00244 16.2968 8.45289L17.9548 10.2394C23.3766 5.20773 30.4369 2.4367 37.8386 2.4367Z" fill="#222222"/>
<path d="M37.8386 60.9171H36.6202V63.3538H37.8386C48.9756 63.3538 59.0912 57.6702 64.8992 48.15L62.8195 46.8817C57.4577 55.6701 48.119 60.9171 37.8386 60.9171Z" fill="#222222"/>
<path d="M6.79253 44.3206L0.0707927 40.9607L0 8.05811L19.189 14.4348L18.2157 16.3831L6.79253 44.3206Z" fill="#FFD900"/>
<path d="M70.2828 44.4077L55.9648 17.074L75.6071 9.36768V40.8585L70.2828 44.4077Z" fill="#FFD900"/>
</svg>
