<svg width="174" height="79" viewBox="0 0 174 79" fill="none" xmlns="http://www.w3.org/2000/svg">
<path d="M22.4689 5.93556C24.2386 3.77885 27.004 2.69983 29.7667 3.08811L165.21 22.1234C169.585 22.7383 172.633 26.7836 172.018 31.1589L166.451 70.7696C165.837 75.1449 161.791 78.1933 157.416 77.5784L21.8021 58.5191C19.1326 58.1439 16.8316 56.4495 15.6809 54.0117L5.91443 33.3198C4.59516 30.5248 5.00399 27.2198 6.96459 24.8304L22.4689 5.93556Z" fill="#FDD93E"/>
<circle cx="15.6409" cy="30.3879" r="4" transform="rotate(8 15.6409 30.3879)" fill="#F8F8F8"/>
<path d="M44.386 47.61C43.4881 47.4838 42.7061 47.1854 42.0397 46.7147C41.3855 46.235 40.9044 45.6342 40.5965 44.9123C40.2887 44.1905 40.1941 43.407 40.3129 42.562C40.4316 41.717 40.7385 40.9899 41.2334 40.3809C41.7283 39.7718 42.3556 39.3322 43.1153 39.0619C43.887 38.7826 44.7218 38.7061 45.6196 38.8322C46.5175 38.9584 47.2935 39.2614 47.9478 39.7411C48.6035 40.2103 49.0853 40.8058 49.3932 41.5277C49.7011 42.2495 49.7956 43.033 49.6769 43.878C49.5581 44.723 49.2513 45.4501 48.7564 46.0591C48.2614 46.6682 47.6334 47.1131 46.8723 47.3939C46.1126 47.6641 45.2838 47.7362 44.386 47.61ZM44.671 45.5819C45.3048 45.671 45.8521 45.5325 46.3128 45.1664C46.7856 44.7912 47.0725 44.2445 47.1735 43.5262C47.2744 42.8079 47.1486 42.2086 46.796 41.7282C46.4555 41.2387 45.9684 40.9494 45.3346 40.8603C44.7008 40.7712 44.1475 40.9143 43.6747 41.2895C43.2034 41.6541 42.9172 42.1955 42.8163 42.9138C42.7153 43.6321 42.8404 44.2367 43.1915 44.7277C43.5441 45.2081 44.0372 45.4928 44.671 45.5819ZM58.543 42.8459L55.6594 42.4406L54.7464 48.9368L52.2905 48.5916L53.2035 42.0955L50.3199 41.6902L50.6049 39.6621L58.8281 40.8178L58.543 42.8459ZM73.3479 49.1759L71.5417 48.9221L71.2143 51.2512L68.7109 50.8994L69.0383 48.5703L63.065 47.7308L63.3077 46.0037L69.525 39.7037L72.2185 40.0823L66.4327 46.0713L69.4114 46.4899L69.7031 44.4143L72.1273 44.755L71.8356 46.8306L73.6418 47.0845L73.3479 49.1759ZM83.002 53.1017C82.083 52.9726 81.2963 52.6304 80.6419 52.0753C79.9874 51.5201 79.5144 50.7858 79.2227 49.8723C78.943 48.9498 78.887 47.8917 79.0548 46.6981C79.2225 45.5045 79.5672 44.5081 80.0889 43.7089C80.6225 42.9006 81.2804 42.3199 82.0626 41.9666C82.8447 41.6134 83.6952 41.5013 84.6142 41.6305C85.5331 41.7596 86.3198 42.1018 86.9743 42.6569C87.6287 43.2121 88.0958 43.9509 88.3754 44.8735C88.6671 45.787 88.7291 46.8405 88.5614 48.0341C88.3936 49.2277 88.0429 50.2287 87.5092 51.0369C86.9876 51.8361 86.3357 52.4123 85.5536 52.7656C84.7715 53.1188 83.921 53.2309 83.002 53.1017ZM83.3071 50.9311C83.9831 51.0261 84.552 50.8098 85.014 50.2823C85.4864 49.7563 85.808 48.8859 85.9787 47.6712C86.1495 46.4564 86.0802 45.5311 85.7711 44.8952C85.4724 44.2608 84.9851 43.8961 84.3091 43.8011C83.6436 43.7076 83.0747 43.9239 82.6022 44.4499C82.1403 44.9774 81.824 45.8485 81.6533 47.0633C81.4825 48.278 81.5465 49.2026 81.8451 49.837C82.1543 50.4728 82.6416 50.8375 83.3071 50.9311ZM93.7557 54.6131C92.8367 54.4839 92.05 54.1418 91.3956 53.5866C90.7411 53.0315 90.2681 52.2971 89.9763 51.3837C89.6967 50.4611 89.6407 49.403 89.8085 48.2094C89.9762 47.0158 90.3209 46.0194 90.8426 45.2202C91.3762 44.412 92.0341 43.8312 92.8162 43.478C93.5984 43.1247 94.4489 43.0126 95.3679 43.1418C96.2868 43.271 97.0735 43.6131 97.728 44.1683C98.3824 44.7234 98.8495 45.4623 99.1291 46.3848C99.4208 47.2983 99.4828 48.3519 99.3151 49.5455C99.1473 50.7391 98.7966 51.74 98.2629 52.5483C97.7413 53.3474 97.0894 53.9237 96.3073 54.2769C95.5252 54.6302 94.6746 54.7422 93.7557 54.6131ZM94.0607 52.4424C94.7368 52.5374 95.3057 52.3212 95.7676 51.7936C96.2401 51.2676 96.5617 50.3972 96.7324 49.1825C96.9032 47.9678 96.8339 47.0425 96.5248 46.4066C96.2261 45.7722 95.7388 45.4075 95.0628 45.3125C94.3973 45.2189 93.8284 45.4352 93.3559 45.9612C92.894 46.4887 92.5777 47.3599 92.4069 48.5746C92.2362 49.7893 92.3002 50.7139 92.5988 51.3483C92.908 51.9842 93.3953 52.3489 94.0607 52.4424ZM104.509 56.1244C103.59 55.9952 102.804 55.6531 102.149 55.0979C101.495 54.5428 101.022 53.8085 100.73 52.895C100.45 51.9724 100.394 50.9143 100.562 49.7207C100.73 48.5271 101.075 47.5307 101.596 46.7316C102.13 45.9233 102.788 45.3425 103.57 44.9893C104.352 44.636 105.203 44.524 106.122 44.6531C107.041 44.7823 107.827 45.1244 108.482 45.6796C109.136 46.2347 109.603 46.9736 109.883 47.8962C110.175 48.8097 110.237 49.8632 110.069 51.0568C109.901 52.2504 109.55 53.2513 109.017 54.0596C108.495 54.8588 107.843 55.435 107.061 55.7882C106.279 56.1415 105.428 56.2536 104.509 56.1244ZM104.814 53.9537C105.49 54.0487 106.059 53.8325 106.521 53.305C106.994 52.7789 107.315 51.9086 107.486 50.6938C107.657 49.4791 107.588 48.5538 107.278 47.9179C106.98 47.2835 106.493 46.9188 105.816 46.8238C105.151 46.7303 104.582 46.9465 104.11 47.4726C103.648 48.0001 103.331 48.8712 103.161 50.0859C102.99 51.3007 103.054 52.2252 103.352 52.8596C103.662 53.4955 104.149 53.8602 104.814 53.9537ZM121.833 49.5433C122.625 49.6546 123.317 49.9404 123.909 50.4007C124.514 50.8518 124.954 51.4361 125.23 52.1536C125.508 52.8604 125.585 53.6522 125.462 54.5289C125.339 55.4056 125.046 56.1507 124.582 56.7642C124.121 57.3672 123.536 57.8075 122.829 58.0851C122.135 58.3537 121.391 58.4323 120.599 58.321C119.511 58.1681 118.704 57.7046 118.177 56.9304L117.618 60.9073L115.146 60.5599L116.776 48.9619L119.137 49.2937L118.999 50.276C119.716 49.6227 120.66 49.3785 121.833 49.5433ZM120.456 56.2328C121.09 56.3219 121.637 56.1834 122.098 55.8173C122.571 55.4421 122.858 54.8954 122.959 54.1771C123.06 53.4588 122.934 52.8595 122.581 52.3791C122.241 51.8896 121.753 51.6003 121.12 51.5112C120.486 51.4221 119.933 51.5652 119.46 51.9404C118.999 52.3065 118.718 52.8487 118.617 53.5669C118.516 54.2852 118.636 54.8891 118.977 55.3786C119.329 55.859 119.822 56.1437 120.456 56.2328ZM136.101 51.6779L130.98 60.1839C130.451 61.1113 129.868 61.7349 129.23 62.0546C128.603 62.3758 127.883 62.4793 127.07 62.365C126.626 62.3026 126.198 62.1724 125.784 61.9742C125.37 61.776 125.043 61.5361 124.803 61.2546L125.953 59.6228C126.119 59.8185 126.317 59.981 126.547 60.1102C126.787 60.2409 127.028 60.3233 127.271 60.3575C127.609 60.405 127.896 60.3591 128.131 60.2197C128.364 60.091 128.592 59.8484 128.815 59.4918L128.858 59.4171L126.373 50.3106L128.924 50.6691L130.504 56.7886L133.725 51.3439L136.101 51.6779ZM142.077 53.1155C142.89 53.2298 143.58 53.499 144.145 53.9232C144.711 54.3367 145.116 54.8675 145.359 55.5156C145.612 56.1652 145.683 56.8861 145.572 57.6783C145.458 58.4917 145.155 59.187 144.665 59.7644C144.186 60.3327 143.569 60.7414 142.812 60.9905C142.057 61.229 141.23 61.2852 140.333 61.159C138.843 60.9497 137.738 60.3096 137.016 59.2387C136.306 58.1587 136.081 56.6945 136.34 54.846C136.581 53.1348 137.142 51.8241 138.024 50.914C138.918 49.9948 140.158 49.4851 141.745 49.385L145.915 49.147L145.949 51.3169L142.268 51.5266C141.269 51.5802 140.501 51.7954 139.964 52.1722C139.437 52.5505 139.074 53.1404 138.875 53.9419C139.301 53.5925 139.788 53.3485 140.335 53.21C140.884 53.0609 141.464 53.0294 142.077 53.1155ZM140.618 59.2441C141.252 59.3332 141.788 59.1984 142.226 58.8399C142.674 58.4829 142.943 57.9875 143.032 57.3537C143.123 56.7094 143 56.1696 142.662 55.7345C142.335 55.3007 141.855 55.0394 141.221 54.9503C140.577 54.8597 140.033 54.9771 139.588 55.3025C139.144 55.6278 138.877 56.1126 138.786 56.757C138.696 57.4013 138.822 57.9576 139.166 58.426C139.511 58.8838 139.995 59.1565 140.618 59.2441ZM147.456 62.0955C147.023 62.0346 146.679 61.8355 146.425 61.4982C146.171 61.1609 146.075 60.7704 146.137 60.3268C146.201 59.8726 146.4 59.5289 146.734 59.2959C147.07 59.0522 147.455 58.9608 147.888 59.0217C148.321 59.0826 148.665 59.2764 148.921 59.6032C149.178 59.9194 149.275 60.3046 149.211 60.7588C149.149 61.2024 148.949 61.5513 148.611 61.8055C148.274 62.0597 147.889 62.1564 147.456 62.0955Z" fill="black"/>
<path d="M58.1412 30.7143C57.1707 30.5779 56.3225 30.2419 55.5967 29.7063C54.8814 29.1628 54.3545 28.4856 54.0161 27.6746C53.6789 26.8543 53.5766 25.9729 53.7091 25.0301C53.8416 24.0874 54.1823 23.2729 54.7311 22.5866C55.2813 21.891 55.9791 21.3859 56.8244 21.0712C57.6711 20.7472 58.5796 20.6534 59.5501 20.7898C60.308 20.8963 60.983 21.1231 61.5751 21.4702C62.1685 21.8081 62.652 22.2578 63.0255 22.8192L62.0016 23.566C61.3792 22.6962 60.5228 22.1847 59.4322 22.0314C58.7112 21.9301 58.0369 22.0003 57.4092 22.2419C56.7814 22.4836 56.2609 22.8676 55.8477 23.3938C55.4449 23.9122 55.1942 24.5225 55.0955 25.225C54.9968 25.9274 55.0689 26.5879 55.3118 27.2064C55.5653 27.8169 55.9605 28.3249 56.4973 28.7302C57.0341 29.1355 57.663 29.3888 58.3839 29.4901C59.4653 29.6421 60.4302 29.3819 61.2787 28.7094L62.0571 29.7095C61.5433 30.1462 60.9494 30.4492 60.2753 30.6183C59.6104 30.7888 58.8991 30.8208 58.1412 30.7143ZM69.6887 25.9187L66.9991 25.5407L66.1301 31.7239L64.7992 31.5369L65.6682 25.3537L62.9787 24.9757L63.1423 23.8111L69.8524 24.7541L69.6887 25.9187ZM72.9911 32.773C72.2609 32.6704 71.6274 32.4164 71.0906 32.0111C70.5538 31.6058 70.1587 31.0978 69.9052 30.4873C69.6622 29.8688 69.5914 29.1991 69.6927 28.4782C69.794 27.7573 70.0461 27.1376 70.4488 26.6193C70.862 26.093 71.3819 25.7137 72.0083 25.4813C72.6361 25.2396 73.315 25.1701 74.0452 25.2727C74.7753 25.3753 75.4042 25.6287 75.9318 26.0327C76.4699 26.4288 76.8604 26.936 77.1034 27.5545C77.3569 28.1651 77.433 28.8308 77.3316 29.5518C77.2303 30.2727 76.973 30.8963 76.5598 31.4225C76.157 31.9409 75.6418 32.3209 75.0141 32.5625C74.3956 32.8055 73.7212 32.8756 72.9911 32.773ZM73.1548 31.6085C73.6261 31.6747 74.0616 31.6275 74.4612 31.4669C74.8713 31.2983 75.2099 31.0349 75.477 30.6766C75.7455 30.309 75.9154 29.8711 75.9869 29.3628C76.0583 28.8544 76.015 28.3912 75.857 27.9732C75.7003 27.5459 75.4474 27.1993 75.0983 26.9334C74.7585 26.6689 74.3529 26.5035 73.8815 26.4373C73.4102 26.371 72.9701 26.4176 72.5612 26.5769C72.1617 26.7375 71.823 27.0009 71.5454 27.3672C71.2782 27.7255 71.1089 28.1588 71.0375 28.6672C70.9661 29.1755 71.0087 29.6433 71.1654 30.0706C71.3327 30.49 71.5856 30.8366 71.9241 31.1103C72.2732 31.3762 72.6834 31.5422 73.1548 31.6085ZM79.7698 26.148L81.1008 26.335L80.3487 31.6864L85.6065 26.9682L86.8126 27.1378L85.78 34.4855L84.449 34.2985L85.2011 28.9471L79.9572 33.6672L78.7372 33.4957L79.7698 26.148ZM97.8667 28.6913L96.834 36.0391L95.6279 35.8696L96.3819 30.5043L92.9998 34.652L92.4175 34.5701L90.3393 29.6409L89.5833 35.0201L88.3633 34.8486L89.3959 27.5008L90.7685 27.6937L92.9546 33.0622L96.619 28.5159L97.8667 28.6913ZM102.56 36.9286C101.83 36.826 101.196 36.572 100.659 36.1667C100.123 35.7614 99.7274 35.2535 99.474 34.6429C99.231 34.0244 99.1602 33.3547 99.2615 32.6338C99.3628 31.9129 99.6148 31.2933 100.018 30.7749C100.431 30.2487 100.951 29.8693 101.577 29.6369C102.205 29.3952 102.884 29.3257 103.614 29.4283C104.344 29.531 104.973 29.7843 105.501 30.1883C106.039 30.5844 106.429 31.0917 106.672 31.7102C106.926 32.3207 107.002 32.9865 106.9 33.7074C106.799 34.4283 106.542 35.0519 106.129 35.5782C105.726 36.0965 105.211 36.4765 104.583 36.7181C103.964 36.9611 103.29 37.0313 102.56 36.9286ZM102.724 35.7641C103.195 35.8303 103.63 35.7831 104.03 35.6225C104.44 35.454 104.779 35.1905 105.046 34.8322C105.314 34.4647 105.484 34.0267 105.556 33.5184C105.627 33.01 105.584 32.5468 105.426 32.1288C105.269 31.7015 105.016 31.3549 104.667 31.0891C104.327 30.8245 103.922 30.6591 103.45 30.5929C102.979 30.5267 102.539 30.5732 102.13 30.7325C101.73 30.8931 101.392 31.1566 101.114 31.5228C100.847 31.8811 100.678 32.3145 100.606 32.8228C100.535 33.3311 100.577 33.7989 100.734 34.2263C100.901 34.6456 101.154 34.9922 101.493 35.266C101.842 35.5318 102.252 35.6978 102.724 35.7641ZM111.497 38.1846C110.748 38.0794 110.101 37.8235 109.555 37.4169C109.018 37.0116 108.623 36.5036 108.369 35.8931C108.117 35.2733 108.042 34.6029 108.143 33.882C108.244 33.1611 108.501 32.5421 108.913 32.0251C109.326 31.4988 109.846 31.1195 110.472 30.8871C111.109 30.6467 111.802 30.5791 112.551 30.6843C113.216 30.7779 113.789 30.995 114.269 31.3358C114.758 31.6779 115.11 32.1232 115.325 32.6718L114.222 33.1812C114.04 32.7975 113.79 32.4938 113.473 32.2701C113.156 32.0465 112.789 31.9054 112.373 31.847C111.893 31.7794 111.443 31.8246 111.025 31.9827C110.617 32.142 110.273 32.4048 109.996 32.771C109.728 33.1293 109.559 33.5627 109.488 34.071C109.415 34.5886 109.457 35.061 109.614 35.4883C109.781 35.9077 110.039 36.2503 110.388 36.5161C110.747 36.7832 111.166 36.9506 111.647 37.0181C112.063 37.0766 112.454 37.042 112.82 36.9145C113.187 36.7869 113.511 36.5638 113.791 36.2451L114.713 37.025C114.356 37.4931 113.894 37.8288 113.328 38.032C112.773 38.2273 112.162 38.2782 111.497 38.1846ZM122.477 33.3376L119.787 32.9596L118.918 39.1428L117.587 38.9557L118.456 32.7725L115.767 32.3945L115.93 31.23L122.64 32.173L122.477 33.3376ZM127.047 35.3371C127.979 35.4775 128.661 35.7901 129.092 36.2749C129.524 36.7597 129.686 37.381 129.58 38.1389C129.468 38.9337 129.114 39.5107 128.517 39.8697C127.93 40.2208 127.143 40.3223 126.155 40.1741L122.969 39.7121L124.001 32.3643L125.332 32.5513L124.983 35.0329L127.047 35.3371ZM126.187 39.1464C126.786 39.2401 127.256 39.1836 127.596 38.9769C127.945 38.7715 128.154 38.4239 128.223 37.934C128.291 37.4534 128.187 37.0808 127.914 36.8161C127.649 36.5527 127.208 36.3729 126.59 36.2766L124.847 36.0034L124.442 38.887L126.187 39.1464Z" fill="black" fill-opacity="0.56"/>
</svg>
